<mxfile host="app.diagrams.net" modified="2022-11-07T09:39:51.183Z" agent="5.0 (Windows NT 10.0; Win64; x64) AppleWebKit/537.36 (KHTML, like Gecko) Chrome/106.0.0.0 Safari/537.36" etag="Reup8SFB8uJjqaCUUiSq" version="20.5.1" type="github">
  <diagram id="hrwmIV864MMJGx2h7jrq" name="第 1 页">
    <mxGraphModel dx="782" dy="436" grid="1" gridSize="10" guides="1" tooltips="1" connect="1" arrows="1" fold="1" page="1" pageScale="1" pageWidth="827" pageHeight="1169" math="0" shadow="0">
      <root>
        <mxCell id="0" />
        <mxCell id="1" parent="0" />
        <mxCell id="7I-w_QfP3rAD6hv6bE49-22" value="" style="rounded=1;whiteSpace=wrap;html=1;fillColor=#ffe6cc;strokeColor=#d79b00;sketch=1;" vertex="1" parent="1">
          <mxGeometry x="427" y="160" width="383" height="620" as="geometry" />
        </mxCell>
        <mxCell id="7I-w_QfP3rAD6hv6bE49-21" value="" style="rounded=1;whiteSpace=wrap;html=1;fillColor=#ffe6cc;strokeColor=#d79b00;sketch=1;" vertex="1" parent="1">
          <mxGeometry x="20" y="160" width="400" height="620" as="geometry" />
        </mxCell>
        <mxCell id="5N0JirgoHnCS-YgRL4aZ-1" value="&lt;font style=&quot;font-size: 18px;&quot;&gt;开始&lt;/font&gt;" style="ellipse;whiteSpace=wrap;html=1;" parent="1" vertex="1">
          <mxGeometry x="475" y="185" width="100" height="70" as="geometry" />
        </mxCell>
        <mxCell id="5N0JirgoHnCS-YgRL4aZ-12" value="" style="edgeStyle=orthogonalEdgeStyle;rounded=0;orthogonalLoop=1;jettySize=auto;html=1;fontSize=18;exitX=0.5;exitY=1;exitDx=0;exitDy=0;" parent="1" source="5N0JirgoHnCS-YgRL4aZ-1" target="5N0JirgoHnCS-YgRL4aZ-4" edge="1">
          <mxGeometry relative="1" as="geometry">
            <mxPoint x="525" y="245" as="sourcePoint" />
          </mxGeometry>
        </mxCell>
        <mxCell id="5N0JirgoHnCS-YgRL4aZ-13" value="" style="edgeStyle=orthogonalEdgeStyle;rounded=0;orthogonalLoop=1;jettySize=auto;html=1;fontSize=18;" parent="1" source="5N0JirgoHnCS-YgRL4aZ-4" target="5N0JirgoHnCS-YgRL4aZ-5" edge="1">
          <mxGeometry relative="1" as="geometry" />
        </mxCell>
        <mxCell id="5N0JirgoHnCS-YgRL4aZ-4" value="加载检查点" style="rounded=1;whiteSpace=wrap;html=1;fontSize=18;" parent="1" vertex="1">
          <mxGeometry x="450" y="295" width="150" height="60" as="geometry" />
        </mxCell>
        <mxCell id="5N0JirgoHnCS-YgRL4aZ-14" value="" style="edgeStyle=orthogonalEdgeStyle;rounded=0;orthogonalLoop=1;jettySize=auto;html=1;fontSize=18;" parent="1" source="5N0JirgoHnCS-YgRL4aZ-5" target="5N0JirgoHnCS-YgRL4aZ-7" edge="1">
          <mxGeometry relative="1" as="geometry" />
        </mxCell>
        <mxCell id="5N0JirgoHnCS-YgRL4aZ-5" value="加载增量数据" style="rounded=1;whiteSpace=wrap;html=1;fontSize=18;" parent="1" vertex="1">
          <mxGeometry x="450" y="395" width="150" height="60" as="geometry" />
        </mxCell>
        <mxCell id="5N0JirgoHnCS-YgRL4aZ-15" value="" style="edgeStyle=orthogonalEdgeStyle;rounded=0;orthogonalLoop=1;jettySize=auto;html=1;fontSize=18;" parent="1" source="5N0JirgoHnCS-YgRL4aZ-7" target="5N0JirgoHnCS-YgRL4aZ-10" edge="1">
          <mxGeometry relative="1" as="geometry" />
        </mxCell>
        <mxCell id="5N0JirgoHnCS-YgRL4aZ-23" style="edgeStyle=orthogonalEdgeStyle;rounded=0;orthogonalLoop=1;jettySize=auto;html=1;entryX=0;entryY=0.5;entryDx=0;entryDy=0;fontSize=12;" parent="1" source="5N0JirgoHnCS-YgRL4aZ-7" target="5N0JirgoHnCS-YgRL4aZ-22" edge="1">
          <mxGeometry relative="1" as="geometry" />
        </mxCell>
        <mxCell id="5N0JirgoHnCS-YgRL4aZ-31" value="&lt;font style=&quot;font-size: 14px;&quot;&gt;无&lt;/font&gt;" style="edgeLabel;html=1;align=center;verticalAlign=middle;resizable=0;points=[];fontSize=12;" parent="5N0JirgoHnCS-YgRL4aZ-23" vertex="1" connectable="0">
          <mxGeometry x="-0.2853" y="-3" relative="1" as="geometry">
            <mxPoint x="10" y="-3" as="offset" />
          </mxGeometry>
        </mxCell>
        <mxCell id="5N0JirgoHnCS-YgRL4aZ-7" value="是否存在新增数据" style="rhombus;whiteSpace=wrap;html=1;fontSize=18;" parent="1" vertex="1">
          <mxGeometry x="440" y="485" width="170" height="80" as="geometry" />
        </mxCell>
        <mxCell id="5N0JirgoHnCS-YgRL4aZ-16" value="" style="edgeStyle=orthogonalEdgeStyle;rounded=0;orthogonalLoop=1;jettySize=auto;html=1;fontSize=18;" parent="1" source="5N0JirgoHnCS-YgRL4aZ-10" target="5N0JirgoHnCS-YgRL4aZ-11" edge="1">
          <mxGeometry relative="1" as="geometry" />
        </mxCell>
        <mxCell id="5N0JirgoHnCS-YgRL4aZ-10" value="根据实体归并" style="rounded=1;whiteSpace=wrap;html=1;fontSize=18;" parent="1" vertex="1">
          <mxGeometry x="450" y="595" width="150" height="60" as="geometry" />
        </mxCell>
        <mxCell id="7I-w_QfP3rAD6hv6bE49-9" style="edgeStyle=orthogonalEdgeStyle;rounded=0;orthogonalLoop=1;jettySize=auto;html=1;entryX=0.5;entryY=1;entryDx=0;entryDy=0;" edge="1" parent="1" source="5N0JirgoHnCS-YgRL4aZ-11" target="5N0JirgoHnCS-YgRL4aZ-22">
          <mxGeometry relative="1" as="geometry" />
        </mxCell>
        <mxCell id="5N0JirgoHnCS-YgRL4aZ-11" value="更新统计结果" style="rounded=1;whiteSpace=wrap;html=1;fontSize=18;" parent="1" vertex="1">
          <mxGeometry x="450" y="685" width="150" height="60" as="geometry" />
        </mxCell>
        <mxCell id="7I-w_QfP3rAD6hv6bE49-1" style="edgeStyle=orthogonalEdgeStyle;rounded=0;orthogonalLoop=1;jettySize=auto;html=1;entryX=1;entryY=0.5;entryDx=0;entryDy=0;" edge="1" parent="1" source="5N0JirgoHnCS-YgRL4aZ-20" target="5N0JirgoHnCS-YgRL4aZ-5">
          <mxGeometry relative="1" as="geometry" />
        </mxCell>
        <mxCell id="5N0JirgoHnCS-YgRL4aZ-20" value="&lt;font style=&quot;font-size: 12px;&quot;&gt;行为&lt;br&gt;告警&lt;br&gt;事件&lt;/font&gt;" style="shape=cylinder3;whiteSpace=wrap;html=1;boundedLbl=1;backgroundOutline=1;size=15;fontSize=18;fillColor=#f5f5f5;strokeColor=#666666;sketch=1;fontColor=#333333;" parent="1" vertex="1">
          <mxGeometry x="700" y="375" width="60" height="100" as="geometry" />
        </mxCell>
        <mxCell id="5N0JirgoHnCS-YgRL4aZ-22" value="&lt;font style=&quot;font-size: 18px;&quot;&gt;结束&lt;/font&gt;" style="ellipse;whiteSpace=wrap;html=1;" parent="1" vertex="1">
          <mxGeometry x="670" y="490" width="125" height="70" as="geometry" />
        </mxCell>
        <mxCell id="7I-w_QfP3rAD6hv6bE49-10" value="" style="edgeStyle=orthogonalEdgeStyle;rounded=0;orthogonalLoop=1;jettySize=auto;html=1;" edge="1" parent="1" source="7I-w_QfP3rAD6hv6bE49-7" target="7I-w_QfP3rAD6hv6bE49-8">
          <mxGeometry relative="1" as="geometry" />
        </mxCell>
        <mxCell id="7I-w_QfP3rAD6hv6bE49-7" value="&lt;font style=&quot;font-size: 18px;&quot;&gt;开始&lt;/font&gt;" style="ellipse;whiteSpace=wrap;html=1;" vertex="1" parent="1">
          <mxGeometry x="165" y="180" width="100" height="70" as="geometry" />
        </mxCell>
        <mxCell id="7I-w_QfP3rAD6hv6bE49-14" style="edgeStyle=orthogonalEdgeStyle;rounded=0;orthogonalLoop=1;jettySize=auto;html=1;entryX=0.5;entryY=0;entryDx=0;entryDy=0;" edge="1" parent="1" source="7I-w_QfP3rAD6hv6bE49-8" target="7I-w_QfP3rAD6hv6bE49-12">
          <mxGeometry relative="1" as="geometry" />
        </mxCell>
        <mxCell id="7I-w_QfP3rAD6hv6bE49-15" style="edgeStyle=orthogonalEdgeStyle;rounded=0;orthogonalLoop=1;jettySize=auto;html=1;entryX=0.5;entryY=0;entryDx=0;entryDy=0;" edge="1" parent="1" source="7I-w_QfP3rAD6hv6bE49-8" target="7I-w_QfP3rAD6hv6bE49-13">
          <mxGeometry relative="1" as="geometry" />
        </mxCell>
        <mxCell id="7I-w_QfP3rAD6hv6bE49-8" value="加载统计数据" style="rounded=1;whiteSpace=wrap;html=1;fontSize=18;" vertex="1" parent="1">
          <mxGeometry x="140" y="290" width="150" height="60" as="geometry" />
        </mxCell>
        <mxCell id="7I-w_QfP3rAD6hv6bE49-18" style="edgeStyle=orthogonalEdgeStyle;rounded=0;orthogonalLoop=1;jettySize=auto;html=1;entryX=0.5;entryY=0;entryDx=0;entryDy=0;" edge="1" parent="1" source="7I-w_QfP3rAD6hv6bE49-12" target="7I-w_QfP3rAD6hv6bE49-16">
          <mxGeometry relative="1" as="geometry" />
        </mxCell>
        <mxCell id="7I-w_QfP3rAD6hv6bE49-12" value="实体已删除" style="rhombus;whiteSpace=wrap;html=1;fontSize=18;" vertex="1" parent="1">
          <mxGeometry x="30" y="430" width="170" height="80" as="geometry" />
        </mxCell>
        <mxCell id="7I-w_QfP3rAD6hv6bE49-17" style="edgeStyle=orthogonalEdgeStyle;rounded=0;orthogonalLoop=1;jettySize=auto;html=1;entryX=0.5;entryY=0;entryDx=0;entryDy=0;" edge="1" parent="1" source="7I-w_QfP3rAD6hv6bE49-13" target="7I-w_QfP3rAD6hv6bE49-16">
          <mxGeometry relative="1" as="geometry" />
        </mxCell>
        <mxCell id="7I-w_QfP3rAD6hv6bE49-13" value="超过30天" style="rhombus;whiteSpace=wrap;html=1;fontSize=18;" vertex="1" parent="1">
          <mxGeometry x="244" y="430" width="170" height="80" as="geometry" />
        </mxCell>
        <mxCell id="7I-w_QfP3rAD6hv6bE49-20" value="" style="edgeStyle=orthogonalEdgeStyle;rounded=0;orthogonalLoop=1;jettySize=auto;html=1;" edge="1" parent="1" source="7I-w_QfP3rAD6hv6bE49-16" target="7I-w_QfP3rAD6hv6bE49-19">
          <mxGeometry relative="1" as="geometry" />
        </mxCell>
        <mxCell id="7I-w_QfP3rAD6hv6bE49-16" value="删除过期数据" style="rounded=1;whiteSpace=wrap;html=1;fontSize=18;" vertex="1" parent="1">
          <mxGeometry x="140" y="580" width="150" height="60" as="geometry" />
        </mxCell>
        <mxCell id="7I-w_QfP3rAD6hv6bE49-19" value="&lt;font style=&quot;font-size: 18px;&quot;&gt;结束&lt;/font&gt;" style="ellipse;whiteSpace=wrap;html=1;" vertex="1" parent="1">
          <mxGeometry x="165" y="675" width="100" height="70" as="geometry" />
        </mxCell>
      </root>
    </mxGraphModel>
  </diagram>
</mxfile>
